<svg xmlns="http://www.w3.org/2000/svg" viewBox="0 0 88.35 79.14">
  <defs>
    <style>
      .cls-1 {
        fill: red;
        stroke: #000;
        stroke-miterlimit: 10;
        stroke-width: 0.28px;
      }
    </style>
  </defs>
  <title>Asset 10</title>
  <g id="Layer_2" data-name="Layer 2">
    <g id="Layer_1-2" data-name="Layer 1"><path
      class="cls-1"
      d="M88.13,66.15A11.51,11.51,0,0,0,75.36,56.09a11.36,11.36,0,0,0-7,3.49L55.61,52.2a11.84,11.84,0,0,0,.48-2.62c0-.11,0-.21,0-.31V49A11.41,11.41,0,0,0,46.9,37.51V22.88a11.51,11.51,0,1,0-5-.05V37.59a11.5,11.5,0,0,0-2.26.81l-.22.12c-.23.11-.46.22-.68.35A11.49,11.49,0,0,0,33.4,51.62l-13,6.88a11.5,11.5,0,1,0,2.27,10.9,11.35,11.35,0,0,0,.08-6.53l12.94-6.81a11.34,11.34,0,0,0,3.23,2.73h0l.08.05.65.35.16.06a10.52,10.52,0,0,0,1.05.43h0a11.32,11.32,0,0,0,3.79.65,11.52,11.52,0,0,0,8.54-3.81l12.69,7.32A11.48,11.48,0,0,0,76.69,79a12.73,12.73,0,0,0,1.37-.08A11.5,11.5,0,0,0,88.13,66.15ZM40.73,54a6.48,6.48,0,0,1-2.56-4.29,6.59,6.59,0,0,1-.06-1.25.71.71,0,0,0,0-.14c0-.13,0-.26,0-.38a6.51,6.51,0,0,1,8.62-5.25c.19.07.39.15.58.24A6.49,6.49,0,1,1,40.73,54ZM38,11.64a6.53,6.53,0,1,1,6.52,6.52A6.53,6.53,0,0,1,38,11.64ZM17.88,67.93a6.53,6.53,0,1,1-6.24-8.46,6.81,6.81,0,0,1,1.94.29,6.54,6.54,0,0,1,4.3,8.17Zm64,3.61a6.52,6.52,0,0,1-11.6-3.27A6.53,6.53,0,0,1,75.94,61a6.74,6.74,0,0,1,.77,0,6.53,6.53,0,0,1,6.48,5.76A6.45,6.45,0,0,1,81.83,71.54Z"/></g>
  </g>
</svg>
