<svg xmlns="http://www.w3.org/2000/svg" xmlns:xlink="http://www.w3.org/1999/xlink" viewBox="0 0 110.01 76.14">
  <defs>
    <style>
      .cls-1 {
        fill: #8a5939;
      }
      .cls-2 {
        fill: url("#linear-gradient");
      }
      .cls-3 {
        fill: url("#linear-gradient-2");
      }
      .cls-4,
      .cls-5 {
        fill: #e6e6e6;
      }
      .cls-4,
      .cls-6,
      .cls-7,
      .cls-8 {
        stroke: #000;
        stroke-miterlimit: 10;
      }
      .cls-4 {
        stroke-width: 0.85px;
      }
      .cls-6,
      .cls-8 {
        stroke-width: 0.57px;
      }
      .cls-7,
      .cls-8 {
        fill: none;
      }
      .cls-7 {
        stroke-width: 2.83px;
      }
    </style>
    <linearGradient id="linear-gradient" x1="2.65" y1="38.07" x2="52.22" y2="38.07" gradientUnits="userSpaceOnUse"><stop offset="0" stop-color="#4d4d4d"/><stop offset="0.01" stop-color="#707070"/><stop offset="0.01" stop-color="#8f8f8f"/><stop offset="0.02" stop-color="#ababab"/><stop offset="0.03" stop-color="#c1c1c1"/><stop offset="0.04" stop-color="#d2d2d2"/><stop offset="0.05" stop-color="#ddd"/><stop offset="0.06" stop-color="#e4e4e4"/><stop offset="0.11" stop-color="#e6e6e6"/></linearGradient><linearGradient id="linear-gradient-2" x1="-1597.79" y1="1137.93" x2="-1548.21" y2="1137.93" gradientTransform="translate(-1490.28 1176) rotate(180)" xlink:href="#linear-gradient"/></defs>
  <title>Asset 12</title>
  <g id="Layer_2" data-name="Layer 2">
    <g id="Layer_1-2" data-name="Layer 1"><rect class="cls-1" x="0.05" y="0.05" width="109.92" height="76.05"/><path d="M110,.05h0V0H.05V.05H0V76.1H.05v0H110v0h0ZM.09,76.05V.09H109.92v76H.09Z"/><rect class="cls-2" x="2.65" y="1.37" width="49.58" height="73.4"/><rect class="cls-3" x="57.93" y="1.37" width="49.58" height="73.4"/><rect class="cls-4" x="5.2" y="1.37" width="49.58" height="73.4"/><polygon class="cls-5" points="104.86 74.82 55.23 74.77 55.01 1.32 104.86 1.32 104.86 74.82"/><path class="cls-6" d="M107.46,1.32h0v0H2.6v0h0v73.5h0v0H107.41v0h0ZM3.93,1.37H5.11v73.4H3.93Zm-.1,73.4H2.65V1.37H3.83ZM5.2,1.37H54.78v73.4H5.2Zm50,0h49.58v73.4H55.23Zm49.67,0h1.19v73.4H104.9Zm1.28,0h1.19v73.4h-1.19Z"/><path class="cls-7" d="M10.87,14.15c2.82-6.38,5.05-7.9,6.77-7.39,2.95.88,3.61,7.47,6.43,7.53,3.06.06,3.91-7.63,6.77-7.1,2.6.49,2.83,7,5.45,7.52S40,8.65,42.93,8.05c1.46-.3,3.52.83,6.13,7.08"/><path class="cls-7" d="M60.87,14.15c2.82-6.38,5.05-7.9,6.77-7.39,3,.88,3.61,7.47,6.43,7.53,3.06.06,3.91-7.63,6.77-7.1,2.6.49,2.83,7,5.45,7.52S90,8.65,92.93,8.05c1.46-.3,3.52.83,6.13,7.08"/><path class="cls-8" d="M61.87,27.23c2.81-5.6,5-6.93,6.76-6.48,3,.78,3.63,6.56,6.45,6.61,3,.06,3.89-6.69,6.75-6.22,2.6.43,2.84,6.17,5.47,6.6s3.66-5.3,6.63-5.83c1.46-.26,3.52.73,6.14,6.22"/><path class="cls-8" d="M61.87,41.23c2.81-5.6,5-6.93,6.76-6.48,3,.78,3.63,6.56,6.45,6.61,3,.06,3.89-6.69,6.75-6.22,2.6.43,2.84,6.17,5.47,6.6s3.66-5.3,6.63-5.83c1.46-.26,3.52.73,6.14,6.22"/><path class="cls-8" d="M60.87,53.23c2.81-5.6,5-6.93,6.76-6.48,3,.78,3.63,6.56,6.45,6.61,3,.06,3.89-6.69,6.75-6.22,2.6.43,2.84,6.17,5.47,6.6s3.66-5.3,6.63-5.83c1.46-.26,3.52.73,6.14,6.22"/><path class="cls-8" d="M61.87,65.23c2.81-5.6,5-6.93,6.76-6.48,3,.78,3.63,6.56,6.45,6.61,3,.06,3.89-6.69,6.75-6.22,2.6.43,2.84,6.17,5.47,6.6s3.66-5.3,6.63-5.83c1.46-.26,3.52.73,6.14,6.22"/><path class="cls-8" d="M9.87,27.23c2.81-5.6,5-6.93,6.76-6.48,3,.78,3.63,6.56,6.45,6.61,3.05.06,3.89-6.69,6.75-6.22,2.6.43,2.84,6.17,5.47,6.6s3.66-5.3,6.63-5.83c1.46-.26,3.52.73,6.14,6.22"/><path class="cls-8" d="M9.87,41.23c2.81-5.6,5-6.93,6.76-6.48,3,.78,3.63,6.56,6.45,6.61,3.05.06,3.89-6.69,6.75-6.22,2.6.43,2.84,6.17,5.47,6.6s3.66-5.3,6.63-5.83c1.46-.26,3.52.73,6.14,6.22"/><path class="cls-8" d="M8.87,53.23c2.81-5.6,5-6.93,6.76-6.48,3,.78,3.63,6.56,6.45,6.61,3.05.06,3.89-6.69,6.75-6.22,2.6.43,2.84,6.17,5.47,6.6s3.66-5.3,6.63-5.83c1.46-.26,3.52.73,6.14,6.22"/><path class="cls-8" d="M9.87,65.23c2.81-5.6,5-6.93,6.76-6.48,3,.78,3.63,6.56,6.45,6.61,3.05.06,3.89-6.69,6.75-6.22,2.6.43,2.84,6.17,5.47,6.6s3.66-5.3,6.63-5.83c1.46-.26,3.52.73,6.14,6.22"/></g>
  </g>
</svg>
