<svg xmlns="http://www.w3.org/2000/svg" viewBox="0 0 644.48 160.22"><defs><style>.cls-1{fill:#fff;}</style></defs><title>Asset 8</title><g id="Layer_2" data-name="Layer 2"><g id="Layer_1-2" data-name="Layer 1"><g id="H65UnX.tif"><path d="M102.59,160.22C101.92,159.58,1,83.34,0,82.56,3.7,79.77,102,5.58,102.59,5h32.59c-.64.64-101.5,76.7-102.67,77.6,1.09.85,102,77,102.67,77.62Z"/><path d="M518.58,5q24.58,11.36,49.19,22.71c14.69,6.76,29.4,13.48,44.66,20.48L591.3,60.82l-53.87-26.4V38q0,59.46,0,118.92c0,1.11-.14,2.22-.22,3.33H518.06c0-.69-.1-1.37-.1-2.06q0-75.42,0-150.84c0-.77.06-1.55.1-2.32Z"/><path d="M340.59,160.22q0-20.43-.08-40.85,0-45.37,0-90.75V25.43l19.33-15.12V72.59H421V92.36H359.9V95.6q0,30.77,0,61.53c0,1-.1,2.06-.15,3.09Z"/><path d="M244.87,160.22c0-.86-.11-130.91-.11-132.06h19.46v44.5h62.32V92.43H264.45c-.07,1.28-.35,66.68-.43,67.79Z"/><path d="M608.09,160.22l-62.28-59.07-4.06-3.85,75.7-46.93,22,10-64.82,40.86,62.4,59Z"/><path d="M358.7,5c-6.78,5.41-13.53,10.85-20.39,16.17-.68.53-2,.41-3,.41-29.22,0-89.74,0-91,0l-45.71,59c-4.21-5.61-8.23-11-12.37-16.47L229.87,5Z"/><path d="M126,24.05l-2.5-3.36,15-11.4c7.35,9.69,57.29,76.06,57.29,77.21q.09,36.85,0,73.72H176.06c0-22.59.06-45.18,0-67.77"/><path d="M491.67,5c0,9.38-.07,18.76-.07,28.15q0,61.86,0,123.72c0,1.11,0,2.23.07,3.35H472q0-22.86.08-45.73,0-45.73,0-91.46V19.54L491.16,5Z"/><path d="M445.62,5q0,62,.05,124c0,10.42,0,20.83-.05,31.25H426.48c-.05-.68-.14-1.37-.14-2.05q0-68.38,0-136.77V19.54L445.11,5Z"/><path d="M132.65,82.75a13,13,0,1,1-12.83-13.12A13,13,0,0,1,132.65,82.75Z"/><path d="M313.9,47.77A13.06,13.06,0,0,1,301,60.83a13.22,13.22,0,0,1-13-13,13,13,0,0,1,13-13A12.86,12.86,0,0,1,313.9,47.77Z"/><path d="M406.48,127.41a12.86,12.86,0,0,1-13.07,12.82,13,13,0,0,1-12.91-13.07,13.23,13.23,0,0,1,13.15-12.91A13.06,13.06,0,0,1,406.48,127.41Z"/><path d="M628.92,103.5a13,13,0,0,1-12.9,13,13,13,0,1,1-.1-26A13,13,0,0,1,628.92,103.5Z"/><g id="H65UnX.tif-2" data-name="H65UnX.tif"><path class="cls-1" d="M107.59,155.22C106.92,154.58,6,78.34,5,77.56,8.7,74.77,107,.58,107.59,0h32.59c-.64.64-101.5,76.7-102.67,77.6,1.09.85,102,77,102.67,77.62Z"/><path class="cls-1" d="M523.58,0q24.58,11.36,49.19,22.71c14.69,6.76,29.4,13.48,44.66,20.48L596.3,55.82l-53.87-26.4V33q0,59.46,0,118.92c0,1.11-.14,2.22-.22,3.33H523.06c0-.69-.1-1.37-.1-2.06q0-75.42,0-150.84c0-.77.06-1.55.1-2.32Z"/><path class="cls-1" d="M345.59,155.22q0-20.43-.08-40.85,0-45.37,0-90.75V20.43L364.84,5.31V67.59H426V87.36H364.9V90.6q0,30.77,0,61.53c0,1-.1,2.06-.15,3.09Z"/><path class="cls-1" d="M249.87,155.22c0-.86-.11-130.91-.11-132.06h19.46v44.5h62.32V87.43H269.45c-.07,1.28-.35,66.68-.43,67.79Z"/><path class="cls-1" d="M613.09,155.22,550.81,96.15l-4.06-3.85,75.7-46.93,22,10L579.66,96.19l62.4,59Z"/><path class="cls-1" d="M363.7,0c-6.78,5.41-13.53,10.85-20.39,16.17-.68.53-2,.41-3,.41-29.22,0-89.74,0-91,0l-45.71,59c-4.21-5.61-8.23-11-12.37-16.47L234.87,0Z"/><path class="cls-1" d="M131,19.05l-2.5-3.36,15-11.4c7.35,9.69,57.29,76.06,57.29,77.21q.09,36.85,0,73.72H181.06c0-22.59.06-45.18,0-67.77"/><path class="cls-1" d="M496.67,0c0,9.38-.07,18.76-.07,28.15q0,61.86,0,123.72c0,1.11,0,2.23.07,3.35H477q0-22.86.08-45.73,0-45.73,0-91.46V14.54L496.16,0Z"/><path class="cls-1" d="M450.62,0q0,62,.05,124c0,10.42,0,20.83-.05,31.25H431.48c-.05-.68-.14-1.37-.14-2.05q0-68.38,0-136.77V14.54L450.11,0Z"/><path class="cls-1" d="M137.65,77.75a13,13,0,1,1-12.83-13.12A13,13,0,0,1,137.65,77.75Z"/><path class="cls-1" d="M318.9,42.77A13.06,13.06,0,0,1,306,55.83a13.22,13.22,0,0,1-13-13,13,13,0,0,1,13-13A12.86,12.86,0,0,1,318.9,42.77Z"/><path class="cls-1" d="M411.48,122.41a12.86,12.86,0,0,1-13.07,12.82,13,13,0,0,1-12.91-13.07,13.23,13.23,0,0,1,13.15-12.91A13.06,13.06,0,0,1,411.48,122.41Z"/><path class="cls-1" d="M633.92,98.5a13,13,0,0,1-12.9,13,13,13,0,1,1-.1-26A13,13,0,0,1,633.92,98.5Z"/></g></g></g></g></svg>