<svg xmlns="http://www.w3.org/2000/svg" viewBox="0 0 85.28 80.41">
  <defs>
    <style>
      .cls-1 {
        fill: #754c24;
      }
      .cls-1,
      .cls-2,
      .cls-3,
      .cls-4,
      .cls-5,
      .cls-6 {
        stroke: #000;
        stroke-miterlimit: 10;
      }
      .cls-1,
      .cls-2,
      .cls-3,
      .cls-4,
      .cls-5 {
        stroke-width: 0.28px;
      }
      .cls-2 {
        fill: #a67c52;
      }
      .cls-3,
      .cls-6 {
        fill: none;
      }
      .cls-4 {
        fill: #e6e6e6;
        fill-opacity: 0.4;
      }
      .cls-5 {
        fill: #1a1a1a;
      }
      .cls-6 {
        stroke-width: 1.13px;
      }
    </style>
  </defs>
  <title>Asset 11</title>
  <g id="Layer_2" data-name="Layer 2">
    <g id="Layer_1-2" data-name="Layer 1"><polygon class="cls-1" points="0.14 4.32 9.2 0.14 85.14 0.14 85.14 76.08 76.08 80.27 0.14 80.27 0.14 4.32"/><rect class="cls-2" x="0.14" y="4.32" width="75.94" height="75.94"/><line class="cls-3" x1="76.08" y1="4.32" x2="85.14" y2="0.14"/><polygon class="cls-4" points="37.77 9.9 37.07 9.2 36.37 9.9 35.67 9.2 34.98 9.9 34.28 9.2 33.58 9.9 33.58 4.32 42.64 0.14 51 0.14 41.95 4.32 41.95 9.9 41.25 9.2 40.55 9.9 39.85 9.2 39.16 9.9 38.46 9.2 37.77 9.9"/><polygon class="cls-5" points="46.47 39.02 54.49 39.02 38.46 22.99 22.44 39.02 30.45 39.02 30.45 61.45 46.47 61.45 46.47 39.02"/><path class="cls-6" d="M18.74,10.8c-2-1.53-2.53-1-3.18-.63s-.65,1.11-1.32,1.3c-1.12.3-1.84-1.44-3.13-1.32S9.6,12.22,8.45,12.27c-1.39.07-2-2.71-3.55-2.72-.81,0-1.46.81-1.83,1.37"/><path class="cls-6" d="M18.74,14.28c-2-1.53-2.53-1-3.18-.63s-.65,1.12-1.32,1.3c-1.12.31-1.84-1.43-3.13-1.32S9.6,15.7,8.45,15.76C7.06,15.82,6.41,13,4.9,13c-.81,0-1.46.8-1.83,1.37"/><path class="cls-6" d="M18.74,17.76c-2-1.52-2.53-1-3.18-.62s-.65,1.11-1.32,1.29c-1.12.31-1.84-1.43-3.13-1.31S9.6,19.18,8.45,19.24c-1.39.06-2-2.72-3.55-2.72-.81,0-1.46.81-1.83,1.37"/></g>
  </g>
</svg>
